<svg xmlns="http://www.w3.org/2000/svg" width="24" height="24" viewBox="0 0 24 24"><path fill="#bebebe" d="M10.10 5.80 L10.10 18.20 L6.30 18.20 L6.30 5.80Z M10.10 5.80 L9.74 6.92 L8.79 7.61 L7.61 7.61 L6.66 6.92 L6.30 5.80 L6.66 4.68 L7.61 3.99 L8.79 3.99 L9.74 4.68Z M10.10 18.20 L9.74 19.32 L8.79 20.01 L7.61 20.01 L6.66 19.32 L6.30 18.20 L6.66 17.08 L7.61 16.39 L8.79 16.39 L9.74 17.08Z M17.70 5.80 L17.70 18.20 L13.90 18.20 L13.90 5.80Z M17.70 5.80 L17.34 6.92 L16.39 7.61 L15.21 7.61 L14.26 6.92 L13.90 5.80 L14.26 4.68 L15.21 3.99 L16.39 3.99 L17.34 4.68Z M17.70 18.20 L17.34 19.32 L16.39 20.01 L15.21 20.01 L14.26 19.32 L13.90 18.20 L14.26 17.08 L15.21 16.39 L16.39 16.39 L17.34 17.08Z"/></svg>