<svg xmlns="http://www.w3.org/2000/svg" width="24" height="24" viewBox="0 0 24 24"><path fill="#bebebe" d="M11.20 6.00 L11.20 18.00 L2.80 12.00Z M11.90 6.00 L11.90 18.00 L10.50 18.00 L10.50 6.00Z M10.79 18.57 L2.39 12.57 L3.21 11.43 L11.61 17.43Z M2.39 11.43 L10.79 5.43 L11.61 6.57 L3.21 12.57Z M11.90 6.00 L11.77 6.41 L11.42 6.67 L10.98 6.67 L10.63 6.41 L10.50 6.00 L10.63 5.59 L10.98 5.33 L11.42 5.33 L11.77 5.59Z M11.90 18.00 L11.77 18.41 L11.42 18.67 L10.98 18.67 L10.63 18.41 L10.50 18.00 L10.63 17.59 L10.98 17.33 L11.42 17.33 L11.77 17.59Z M3.50 12.00 L3.37 12.41 L3.02 12.67 L2.58 12.67 L2.23 12.41 L2.10 12.00 L2.23 11.59 L2.58 11.33 L3.02 11.33 L3.37 11.59Z M21.20 6.00 L21.20 18.00 L12.80 12.00Z M21.90 6.00 L21.90 18.00 L20.50 18.00 L20.50 6.00Z M20.79 18.57 L12.39 12.57 L13.21 11.43 L21.61 17.43Z M12.39 11.43 L20.79 5.43 L21.61 6.57 L13.21 12.57Z M21.90 6.00 L21.77 6.41 L21.42 6.67 L20.98 6.67 L20.63 6.41 L20.50 6.00 L20.63 5.59 L20.98 5.33 L21.42 5.33 L21.77 5.59Z M21.90 18.00 L21.77 18.41 L21.42 18.67 L20.98 18.67 L20.63 18.41 L20.50 18.00 L20.63 17.59 L20.98 17.33 L21.42 17.33 L21.77 17.59Z M13.50 12.00 L13.37 12.41 L13.02 12.67 L12.58 12.67 L12.23 12.41 L12.10 12.00 L12.23 11.59 L12.58 11.33 L13.02 11.33 L13.37 11.59Z"/></svg>